#!OML:ASF H:\Pregnant\Project 1\Capture day 1\Session 1\femalepreg.ASF
:FULLY-SPECIFIED
:DEGREES
401
root 6.40259 15.0517 17.3801 20.0097 -22.1769 -10.4816
lowerback -12.0614 -0.0702305 13.5574
upperback -2.53233 -2.11134 5.0306
thorax 3.79496 -0.963606 -2.57714
lowerneck -19.2926 0.286312 2.22543
upperneck 25.6937 -0.00579696 -1.41521
head 11.5896 -0.000816843 -0.907671
rclavicle -3.06128e-014 -2.8625e-014
rhumerus -33.5262 -17.1223 -68.0249
rradius 33.9474
rwrist -14.9284
rhand -26.138 -12.1777
rfingers 7.12502
rthumb 0.412488 -42.1571
lclavicle -3.06128e-014 -2.8625e-014
lhumerus -38.2877 -3.8138 82.9793
lradius 32.562
lwrist 40.548
lhand -26.2686 2.9336
lfingers 7.12502
lthumb 0.286289 32.9131
rfemur -28.4378 13.5935 34.3224
rtibia 38.6302
rfoot -16.7575 -12.5799
rtoes -10.0053
lfemur -46.0619 -1.0092 -11.0291
ltibia 70.8038
lfoot -7.29563 4.97791
ltoes -26.0222
402
root 6.39914 15.0538 17.4314 19.9929 -22.5593 -10.2776
lowerback -12.0573 -0.030987 13.3623
upperback -2.52253 -2.02939 4.9229
thorax 3.81783 -0.922867 -2.57448
lowerneck -19.3168 0.444565 2.37995
upperneck 25.8261 0.175119 -1.44255
head 11.6497 0.092357 -0.917205
rclavicle 2.32578e-014 -3.18055e-014
rhumerus -33.3458 -16.0538 -69.1611
rradius 35.1193
rwrist -15.5212
rhand -25.8295 -11.9166
rfingers 7.12502
rthumb 0.710384 -41.8952
lclavicle 2.32578e-014 -3.18055e-014
lhumerus -38.0507 -4.2147 83.0939
lradius 33.1361
lwrist 40.6186
lhand -26.4417 3.00148
lfingers 7.12502
lthumb 0.119151 32.9812
rfemur -28.4124 13.8202 33.9767
rtibia 38.8478
rfoot -16.8116 -12.5657
rtoes -10.6223
lfemur -46.4909 -1.7952 -10.7351
ltibia 69.8556
lfoot -7.76723 5.9274
ltoes -25.7428
403
root 6.39606 15.0566 17.4838 19.9625 -22.9527 -10.0723
lowerback -12.0423 0.0194119 13.1714
upperback -2.50667 -1.93113 4.80209
thorax 3.84257 -0.873641 -2.58521
lowerneck -19.3519 0.592521 2.5482
upperneck 25.9434 0.341132 -1.48432
head 11.7064 0.178308 -0.936481
rclavicle 2.8128e-014 -7.95139e-016
rhumerus -33.2008 -14.9794 -70.2746
rradius 36.3416
rwrist -16.1112
rhand -25.5033 -11.6528
rfingers 7.12502
rthumb 1.02543 -41.63
lclavicle 2.8128e-014 -7.95139e-016
lhumerus -37.8031 -4.62876 83.2029
lradius 33.7642
lwrist 40.7353
lhand -26.6169 3.02815
lfingers 7.12502
lthumb -0.0500948 33.0079
rfemur -28.3588 14.0539 33.6259
rtibia 39.0406
rfoot -16.8533 -12.5494
rtoes -11.2501
lfemur -46.852 -2.59033 -10.4105
ltibia 68.7972
lfoot -8.21878 6.92186
ltoes -25.4319
404
root 6.3934 15.0602 17.5371 19.9229 -23.3554 -9.86949
lowerback -12.0146 0.071473 12.9764
upperback -2.49107 -1.82807 4.68472
thorax 3.86063 -0.822519 -2.58893
lowerneck -19.38 0.742642 2.71482
upperneck 26.0409 0.518137 -1.54962
head 11.7549 0.265913 -0.962228
rclavicle -6.4605e-015 -3.97569e-015
rhumerus -33.086 -13.8528 -71.3602
rradius 37.6169
rwrist -16.7197
rhand -25.1748 -11.4396
rfingers 7.12502
rthumb 1.34273 -41.4151
lclavicle -6.4605e-015 -3.97569e-015
lhumerus -37.5582 -5.01217 83.3128
lradius 34.4408
lwrist 40.8716
lhand -26.7841 3.0224
lfingers 7.12502
lthumb -0.211541 33.002
rfemur -28.2771 14.2859 33.2753
rtibia 39.2032
rfoot -16.8967 -12.521
rtoes -11.835
lfemur -47.1526 -3.39123 -10.0511
ltibia 67.6373
lfoot -8.64562 7.92753
ltoes -25.0041
405
root 6.3912 15.0644 17.5909 19.886 -23.7616 -9.67156
lowerback -11.983 0.130608 12.7945
upperback -2.47758 -1.71588 4.55675
thorax 3.87448 -0.767029 -2.60936
lowerneck -19.4026 0.896979 2.88607
upperneck 26.1178 0.699664 -1.61353
head 11.7951 0.356174 -0.987261
rclavicle 3.80673e-014 -9.54166e-015
rhumerus -33.0013 -12.709 -72.4293
rradius 38.9365
rwrist -17.3392
rhand -24.8393 -11.2952
rfingers 7.12502
rthumb 1.66674 -41.2684
lclavicle 3.80673e-014 -9.54166e-015
lhumerus -37.3089 -5.39699 83.4115
lradius 35.1594
lwrist 41.0441
lhand -26.9615 2.94965
lfingers 7.12502
lthumb -0.382901 32.929
rfemur -28.176 14.5105 32.9275
rtibia 39.3265
rfoot -16.9535 -12.4748
rtoes -12.3219
lfemur -47.4144 -4.19511 -9.65072
ltibia 66.3836
lfoot -9.03497 8.90094
ltoes -24.4823
